<svg width="60" height="60" viewBox="0 0 60 60" fill="none" xmlns="http://www.w3.org/2000/svg">
<path d="M57.2466 15.9375H49.3359V13.9238C50.7525 13.5015 51.9698 12.5835 52.7652 11.3375C53.5605 10.0916 53.8808 8.60093 53.6674 7.13822C53.4541 5.67552 52.7213 4.33849 51.6032 3.37162C50.4851 2.40476 49.0563 1.87268 47.5781 1.87268C46.0999 1.87268 44.6712 2.40476 43.553 3.37162C42.4349 4.33849 41.7022 5.67552 41.4888 7.13822C41.2755 8.60093 41.5957 10.0916 42.3911 11.3375C43.1864 12.5835 44.4037 13.5015 45.8203 13.9238V15.9375H14.1797V13.9238C15.5944 13.5 16.8095 12.5817 17.6033 11.3363C18.3971 10.091 18.7165 8.60173 18.5033 7.1404C18.2901 5.67907 17.5585 4.34314 16.442 3.37648C15.3256 2.40982 13.8987 1.87691 12.4219 1.87503C10.9434 1.87406 9.51402 2.40557 8.39538 3.37229C7.27673 4.33901 6.54366 5.67625 6.33033 7.13926C6.117 8.60227 6.4377 10.0932 7.23371 11.3391C8.02972 12.585 9.24781 13.5025 10.665 13.9238V15.9375H2.75438C2.63886 15.9374 2.52445 15.9601 2.41771 16.0042C2.31096 16.0484 2.21397 16.1131 2.13229 16.1948C2.05061 16.2765 1.98584 16.3735 1.94169 16.4802C1.89754 16.587 1.87488 16.7014 1.875 16.8169V34.395C1.875 34.8816 2.26781 35.2744 2.75438 35.2744H10.665V41.4272H7.44188V44.9428H10.6641V55.0228C10.6641 55.8094 8.90625 58.125 8.90625 58.125H15.9375C15.9375 58.125 14.1797 55.8094 14.1797 55.021V44.9419H45.8203V55.0219C45.8203 55.8094 44.0625 58.125 44.0625 58.125H51.0938C51.0938 58.125 49.3359 55.8094 49.3359 55.021V44.9419H52.5581V41.4263H49.3359V35.2735H57.2466C57.3621 35.2736 57.4765 35.2509 57.5832 35.2068C57.69 35.1626 57.787 35.0979 57.8687 35.0162C57.9503 34.9345 58.0151 34.8375 58.0593 34.7308C58.1034 34.624 58.1261 34.5096 58.1259 34.3941V16.816C58.1257 16.5829 58.0329 16.3595 57.868 16.1948C57.7032 16.03 57.4796 15.9375 57.2466 15.9375ZM37.8366 17.6953H47.1244L40.5863 33.5157H31.3003L37.8366 17.6953ZM8.02781 8.02784C8.02781 5.60253 9.99563 3.63284 12.4228 3.63284C14.85 3.63284 16.8178 5.60253 16.8178 8.02784C16.8178 9.19347 16.3548 10.3114 15.5305 11.1356C14.7063 11.9598 13.5884 12.4228 12.4228 12.4228C11.2572 12.4228 10.1393 11.9598 9.31508 11.1356C8.49086 10.3114 8.02781 9.19347 8.02781 8.02784ZM3.88594 33.2513C3.72385 33.088 3.63286 32.8673 3.63281 32.6372V18.5747C3.63281 18.0882 4.02563 17.6953 4.51219 17.6953H10.68L3.88594 33.2513ZM12.4219 43.8291C12.2508 43.8291 12.0868 43.7611 11.9658 43.6402C11.8448 43.5192 11.7769 43.3552 11.7769 43.1841C11.7769 43.013 11.8448 42.849 11.9658 42.728C12.0868 42.607 12.2508 42.5391 12.4219 42.5391C12.5929 42.5391 12.757 42.607 12.878 42.728C12.9989 42.849 13.0669 43.013 13.0669 43.1841C13.0669 43.3552 12.9989 43.5192 12.878 43.6402C12.757 43.7611 12.5929 43.8291 12.4219 43.8291ZM12.4716 33.5157L19.3828 17.6953H28.7016L22.1634 33.5157H12.4716ZM45.8203 41.4263H14.1797V35.2735H45.8203V41.4263ZM47.5781 43.8291C47.4071 43.8291 47.243 43.7611 47.122 43.6402C47.0011 43.5192 46.9331 43.3552 46.9331 43.1841C46.9331 43.013 47.0011 42.849 47.122 42.728C47.243 42.607 47.4071 42.5391 47.5781 42.5391C47.7492 42.5391 47.9132 42.607 48.0342 42.728C48.1552 42.849 48.2231 43.013 48.2231 43.1841C48.2231 43.3552 48.1552 43.5192 48.0342 43.6402C47.9132 43.7611 47.7492 43.8291 47.5781 43.8291ZM47.5781 12.4219C47.001 12.4219 46.4295 12.3082 45.8962 12.0874C45.363 11.8665 44.8785 11.5428 44.4704 11.1346C44.0623 10.7265 43.7385 10.242 43.5177 9.7088C43.2968 9.17557 43.1831 8.60406 43.1831 8.02691C43.1831 7.44975 43.2968 6.87824 43.5177 6.34501C43.7385 5.81179 44.0623 5.32728 44.4704 4.91917C44.8785 4.51106 45.363 4.18732 45.8962 3.96645C46.4295 3.74559 47.001 3.63191 47.5781 3.63191C48.7438 3.63191 49.8616 4.09495 50.6859 4.91917C51.5101 5.74339 51.9731 6.86128 51.9731 8.02691C51.9731 9.19253 51.5101 10.3104 50.6859 11.1346C49.8616 11.9589 48.7438 12.4219 47.5781 12.4219ZM56.3672 32.6372C56.3673 32.7527 56.3447 32.8671 56.3005 32.9739C56.2564 33.0806 56.1916 33.1776 56.1099 33.2593C56.0282 33.341 55.9312 33.4058 55.8245 33.4499C55.7177 33.4941 55.6033 33.5167 55.4878 33.5166H49.7231L56.1375 17.9944C56.2833 18.1527 56.3651 18.3595 56.3672 18.5747V32.6372Z" fill="#FFA51E"/>
</svg>
