<svg width="24" height="24" viewBox="0 0 24 24" fill="none" xmlns="http://www.w3.org/2000/svg">
<path d="M14.0785 3.39656C14.0785 3.39656 16.1136 0.852559 16.6227 0.343778C17.1314 -0.165003 18.0216 -0.165003 18.2761 0.725247C18.5303 1.61568 20.057 6.19495 20.057 6.19495L24 15.0138H21.8664V17.1338L20.0431 16.7522L19.4072 18.5754L17.7113 17.8122L16.8633 19.4235L14.1025 17.8333L11.8603 18.9147H12.1398L9.89752 17.8333L7.13667 19.4235L6.2887 17.8122L4.59277 18.5754L3.95691 16.7522L2.13356 17.1338V15.0138H0L3.94303 6.19495C3.94303 6.19495 5.46966 1.61568 5.72391 0.725247C5.97844 -0.165003 6.86888 -0.165003 7.37766 0.343778C7.88639 0.852512 9.92152 3.39656 9.92152 3.39656H14.0785Z" fill="#EB8138"/>
<path d="M8.56537 4.71093L6.91195 2.54858L6.27609 4.71093H8.56537Z" fill="#FEFFFF"/>
<path d="M15.4346 4.71093L17.088 2.54858L17.7239 4.71093H15.4346Z" fill="#FEFFFF"/>
<path d="M12 18.9147H13.5263C13.5263 18.9147 14.8073 18.9655 15.7907 17.982C16.9779 16.7948 17.4377 14.3249 17.4377 14.3249C18.4869 14.1659 20.4528 11.2045 18.2961 9.24764C16.0068 7.1701 12.318 9.396 12.7421 12.9576V16.4537L13.4161 18.3212L12 18.4907V18.5754L10.5836 18.4059L11.2579 16.5384V13.0423C11.6817 9.48056 7.99322 7.25466 5.70361 9.33235C3.54727 11.2892 5.51278 14.2507 6.56203 14.4096C6.56203 14.4096 7.02216 16.8795 8.20899 18.0666C9.19266 19.0502 10.4734 18.9993 10.4734 18.9993H12V18.9147Z" fill="#FEFFFF"/>
<path d="M8.46629 11.8538H7.59399L7.87623 12.2364C7.83962 12.3176 7.81867 12.4064 7.81867 12.5005C7.81867 12.8582 8.10826 13.1483 8.46624 13.1483C8.82329 13.1483 9.11321 12.8582 9.11321 12.5005C9.11326 12.1435 8.82334 11.8538 8.46629 11.8538Z" fill="#302A26"/>
<path d="M15.5337 11.8538H16.406L16.1241 12.2364C16.1605 12.3176 16.1814 12.4064 16.1814 12.5005C16.1814 12.8582 15.8917 13.1483 15.5338 13.1483C15.1767 13.1483 14.8868 12.8582 14.8868 12.5005C14.8868 12.1435 15.1767 11.8538 15.5337 11.8538Z" fill="#302A26"/>
<path d="M13.2678 17.9924C12.9978 17.9924 12 17.9924 12 17.9924C12 17.9924 11.0018 17.9924 10.7322 17.9924C9.97691 17.9924 9.49185 18.9093 10.0852 19.6646C10.8249 20.6064 11.5143 20.6355 12 20.6355C12.4853 20.6355 13.1748 20.6064 13.9147 19.6646C14.5085 18.9093 14.0231 17.9924 13.2678 17.9924Z" fill="black"/>
</svg>
