<svg width="20" height="60" viewBox="0 0 20 60" fill="none" xmlns="http://www.w3.org/2000/svg">
<path d="M6.53601 57.657C5.38401 57.657 4.28001 57.5268 3.22401 57.2665C2.16801 57.0387 1.27201 56.6807 0.536011 56.1926L2.55201 50.6766C3.41601 51.295 4.47201 51.6041 5.72001 51.6041C6.64801 51.6041 7.38401 51.2787 7.92801 50.6278C8.50401 50.0095 8.79201 49.0658 8.79201 47.7966V21.5349H16.28V47.7478C16.28 50.7743 15.432 53.1824 13.736 54.9722C12.04 56.7621 9.64001 57.657 6.53601 57.657ZM12.536 17.8739C11.16 17.8739 10.04 17.4672 9.17601 16.6536C8.31201 15.84 7.88001 14.8312 7.88001 13.6272C7.88001 12.4231 8.31201 11.4143 9.17601 10.6007C10.04 9.78715 11.16 9.38037 12.536 9.38037C13.912 9.38037 15.032 9.77088 15.896 10.5519C16.76 11.3004 17.192 12.2766 17.192 13.4807C17.192 14.7499 16.76 15.8075 15.896 16.6536C15.064 17.4672 13.944 17.8739 12.536 17.8739Z" fill="#212925"/>
<path d="M12.5 18.3051C15.5376 18.3051 18 15.8009 18 12.7119C18 9.62282 15.5376 7.11865 12.5 7.11865C9.46243 7.11865 7 9.62282 7 12.7119C7 15.8009 9.46243 18.3051 12.5 18.3051Z" fill="#5CFFBA"/>
</svg>
