<svg width="16" height="16" viewBox="0 0 16 16" fill="none" xmlns="http://www.w3.org/2000/svg">
<rect width="16" height="16" rx="8" fill="black"/>
<g clip-path="url(#clip0_57_398)">
<path d="M8.53842 5.41433C9.14593 5.41433 9.63842 4.86364 9.63842 4.18434C9.63842 3.50503 9.14593 2.95435 8.53842 2.95435C7.9309 2.95435 7.43842 3.50503 7.43842 4.18434C7.43842 4.86364 7.9309 5.41433 8.53842 5.41433Z" fill="white"/>
<path d="M7.30718 14.0682C7.07678 14.0682 6.85598 14.0395 6.64478 13.9823C6.43358 13.9322 6.25438 13.8535 6.10718 13.7461L6.51038 12.5331C6.68318 12.6691 6.89438 12.7371 7.14398 12.7371C7.32958 12.7371 7.47678 12.6655 7.58558 12.5224C7.70078 12.3864 7.75838 12.1789 7.75838 11.8998V6.12466H9.25598V11.8891C9.25598 12.5546 9.08638 13.0842 8.74718 13.4778C8.40798 13.8714 7.92798 14.0682 7.30718 14.0682ZM8.50718 5.31958C8.23198 5.31958 8.00798 5.23013 7.83518 5.05122C7.66238 4.87231 7.57598 4.65046 7.57598 4.38568C7.57598 4.1209 7.66238 3.89905 7.83518 3.72014C8.00798 3.54124 8.23198 3.45178 8.50718 3.45178C8.78238 3.45178 9.00638 3.53766 9.17918 3.70941C9.35198 3.874 9.43838 4.08869 9.43838 4.35348C9.43838 4.63257 9.35198 4.86515 9.17918 5.05122C9.01278 5.23013 8.78878 5.31958 8.50718 5.31958Z" fill="white"/>
</g>
<defs>
<clipPath id="clip0_57_398">
<rect width="4" height="13.1944" fill="white" transform="translate(6 1.38892)"/>
</clipPath>
</defs>
</svg>
