<svg width="9" height="9" viewBox="0 0 9 9" fill="none" xmlns="http://www.w3.org/2000/svg">
<path d="M6.64012 6.64016C6.5694 6.70847 6.47467 6.74626 6.37635 6.74541C6.27803 6.74455 6.18397 6.70512 6.11444 6.63559C6.04491 6.56606 6.00548 6.472 6.00462 6.37368C6.00377 6.27536 6.04156 6.18063 6.10987 6.10991L7.34475 4.87503H0.75C0.650544 4.87503 0.555161 4.83552 0.484835 4.7652C0.414509 4.69487 0.375 4.59949 0.375 4.50003C0.375 4.40057 0.414509 4.30519 0.484835 4.23487C0.555161 4.16454 0.650544 4.12503 0.75 4.12503H7.34475L6.10987 2.89016C6.04156 2.81943 6.00377 2.7247 6.00462 2.62638C6.00548 2.52806 6.04491 2.434 6.11444 2.36447C6.18397 2.29495 6.27803 2.25551 6.37635 2.25465C6.47467 2.2538 6.5694 2.2916 6.64012 2.35991L8.51512 4.23491C8.58543 4.30523 8.62492 4.40059 8.62492 4.50003C8.62492 4.59947 8.58543 4.69483 8.51512 4.76516L6.64012 6.64016Z" fill="#1C201E"/>
</svg>
