<svg width="849" height="210" viewBox="0 0 849 210" fill="none" xmlns="http://www.w3.org/2000/svg">
<path d="M252.035 78V24.8H264.347V67.968H291.023V78H252.035ZM317.135 78.608C312.474 78.608 308.37 77.696 304.823 75.872C301.327 74.048 298.616 71.5653 296.691 68.424C294.766 65.232 293.803 61.6093 293.803 57.556C293.803 53.452 294.74 49.8293 296.615 46.688C298.54 43.496 301.15 41.0133 304.443 39.24C307.736 37.416 311.46 36.504 315.615 36.504C319.618 36.504 323.215 37.3653 326.407 39.088C329.65 40.76 332.208 43.192 334.083 46.384C335.958 49.5253 336.895 53.3 336.895 57.708C336.895 58.164 336.87 58.696 336.819 59.304C336.768 59.8613 336.718 60.3933 336.667 60.9H303.455V53.984H330.435L325.875 56.036C325.875 53.908 325.444 52.0587 324.583 50.488C323.722 48.9173 322.531 47.7013 321.011 46.84C319.491 45.928 317.718 45.472 315.691 45.472C313.664 45.472 311.866 45.928 310.295 46.84C308.775 47.7013 307.584 48.9427 306.723 50.564C305.862 52.1347 305.431 54.0093 305.431 56.188V58.012C305.431 60.2413 305.912 62.2173 306.875 63.94C307.888 65.612 309.282 66.904 311.055 67.816C312.879 68.6773 315.007 69.108 317.439 69.108C319.618 69.108 321.518 68.7787 323.139 68.12C324.811 67.4613 326.331 66.4733 327.699 65.156L334.007 71.996C332.132 74.124 329.776 75.7707 326.939 76.936C324.102 78.0507 320.834 78.608 317.135 78.608ZM361.508 78.608C356.695 78.608 352.946 77.392 350.26 74.96C347.575 72.4773 346.232 68.804 346.232 63.94V28.068H358.088V63.788C358.088 65.5107 358.544 66.8533 359.456 67.816C360.368 68.728 361.61 69.184 363.18 69.184C365.055 69.184 366.651 68.6773 367.968 67.664L371.16 76.024C369.944 76.8853 368.475 77.544 366.752 78C365.08 78.4053 363.332 78.608 361.508 78.608ZM339.924 47.144V38.024H368.272V47.144H339.924ZM375.764 46.84L380.78 28.6L382.452 35.516C380.273 35.516 378.474 34.8827 377.056 33.616C375.688 32.2987 375.004 30.5253 375.004 28.296C375.004 26.1173 375.713 24.3693 377.132 23.052C378.55 21.684 380.298 21 382.376 21C384.504 21 386.252 21.684 387.62 23.052C388.988 24.3693 389.672 26.1173 389.672 28.296C389.672 28.9547 389.621 29.6133 389.52 30.272C389.469 30.88 389.292 31.6147 388.988 32.476C388.734 33.3373 388.304 34.4773 387.696 35.896L383.288 46.84H375.764ZM410.126 78.608C406.63 78.608 403.261 78.2027 400.018 77.392C396.826 76.5307 394.293 75.4667 392.418 74.2L396.37 65.688C398.245 66.8533 400.449 67.816 402.982 68.576C405.566 69.2853 408.1 69.64 410.582 69.64C413.318 69.64 415.244 69.3107 416.358 68.652C417.524 67.9933 418.106 67.0813 418.106 65.916C418.106 64.9533 417.65 64.244 416.738 63.788C415.877 63.2813 414.712 62.9013 413.242 62.648C411.773 62.3947 410.152 62.1413 408.378 61.888C406.656 61.6347 404.908 61.3053 403.134 60.9C401.361 60.444 399.74 59.7853 398.27 58.924C396.801 58.0627 395.61 56.8973 394.698 55.428C393.837 53.9587 393.406 52.0587 393.406 49.728C393.406 47.144 394.141 44.864 395.61 42.888C397.13 40.912 399.309 39.3667 402.146 38.252C404.984 37.0867 408.378 36.504 412.33 36.504C415.117 36.504 417.954 36.808 420.842 37.416C423.73 38.024 426.137 38.9107 428.062 40.076L424.11 48.512C422.134 47.3467 420.133 46.5613 418.106 46.156C416.13 45.7 414.205 45.472 412.33 45.472C409.696 45.472 407.77 45.8267 406.554 46.536C405.338 47.2453 404.73 48.1573 404.73 49.272C404.73 50.2853 405.161 51.0453 406.022 51.552C406.934 52.0587 408.125 52.464 409.594 52.768C411.064 53.072 412.66 53.3507 414.382 53.604C416.156 53.8067 417.929 54.136 419.702 54.592C421.476 55.048 423.072 55.7067 424.49 56.568C425.96 57.3787 427.15 58.5187 428.062 59.988C428.974 61.4067 429.43 63.2813 429.43 65.612C429.43 68.1453 428.67 70.4 427.15 72.376C425.63 74.3013 423.426 75.8213 420.538 76.936C417.701 78.0507 414.23 78.608 410.126 78.608Z" fill="white"/>
<path d="M503.235 79.738C499.245 79.738 495.91 78.918 493.231 77.278C490.607 75.638 488.639 73.1233 487.327 69.734C486.015 66.3447 485.359 61.9987 485.359 56.696C485.359 51.5027 486.043 47.2113 487.409 43.822C488.831 40.4327 490.881 37.918 493.559 36.278C496.238 34.638 499.463 33.818 503.235 33.818C507.281 33.818 510.943 34.7473 514.223 36.606C517.558 38.4647 520.182 41.116 522.095 44.56C524.063 47.9493 525.047 51.9947 525.047 56.696C525.047 61.452 524.063 65.552 522.095 68.996C520.182 72.3853 517.558 75.0367 514.223 76.95C510.943 78.8087 507.281 79.738 503.235 79.738ZM475.273 79V18.156H490.853V42.018L490.033 56.696L490.115 71.374V79H475.273ZM499.955 67.356C501.705 67.356 503.263 66.946 504.629 66.126C506.051 65.306 507.171 64.1033 507.991 62.518C508.866 60.878 509.303 58.9373 509.303 56.696C509.303 54.4547 508.866 52.5687 507.991 51.038C507.171 49.4527 506.051 48.25 504.629 47.43C503.263 46.61 501.705 46.2 499.955 46.2C498.206 46.2 496.621 46.61 495.199 47.43C493.833 48.25 492.712 49.4527 491.837 51.038C491.017 52.5687 490.607 54.4547 490.607 56.696C490.607 58.9373 491.017 60.878 491.837 62.518C492.712 64.1033 493.833 65.306 495.199 66.126C496.621 66.946 498.206 67.356 499.955 67.356ZM550.985 79.738C547.377 79.738 544.124 79.0273 541.227 77.606C538.384 76.1847 536.143 73.9707 534.503 70.964C532.918 67.9027 532.125 64.0487 532.125 59.402V34.556H547.705V56.86C547.705 60.304 548.334 62.764 549.591 64.24C550.903 65.716 552.734 66.454 555.085 66.454C556.616 66.454 558.01 66.0987 559.267 65.388C560.524 64.6773 561.536 63.5567 562.301 62.026C563.066 60.4407 563.449 58.418 563.449 55.958V34.556H579.029V79H564.187V66.454L567.057 69.98C565.526 73.26 563.312 75.72 560.415 77.36C557.518 78.9453 554.374 79.738 550.985 79.738ZM589.065 79V34.556H604.645V79H589.065ZM596.855 29.636C594.012 29.636 591.716 28.8433 589.967 27.258C588.217 25.6727 587.343 23.7047 587.343 21.354C587.343 19.0033 588.217 17.0353 589.967 15.45C591.716 13.8647 594.012 13.072 596.855 13.072C599.697 13.072 601.993 13.8373 603.743 15.368C605.492 16.844 606.367 18.7573 606.367 21.108C606.367 23.568 605.492 25.618 603.743 27.258C602.048 28.8433 599.752 29.636 596.855 29.636ZM614.77 79V18.156H630.35V79H614.77ZM659.827 79.738C655.781 79.738 652.091 78.8087 648.757 76.95C645.477 75.0367 642.853 72.3853 640.885 68.996C638.917 65.552 637.933 61.452 637.933 56.696C637.933 51.9947 638.917 47.9493 640.885 44.56C642.853 41.116 645.477 38.4647 648.757 36.606C652.091 34.7473 655.781 33.818 659.827 33.818C663.653 33.818 666.879 34.638 669.503 36.278C672.181 37.918 674.204 40.4327 675.571 43.822C676.937 47.2113 677.621 51.5027 677.621 56.696C677.621 61.9987 676.965 66.3447 675.653 69.734C674.341 73.1233 672.373 75.638 669.749 77.278C667.125 78.918 663.817 79.738 659.827 79.738ZM663.107 67.356C664.856 67.356 666.414 66.946 667.781 66.126C669.202 65.306 670.323 64.1033 671.143 62.518C671.963 60.878 672.373 58.9373 672.373 56.696C672.373 54.4547 671.963 52.5687 671.143 51.038C670.323 49.4527 669.202 48.25 667.781 47.43C666.414 46.61 664.856 46.2 663.107 46.2C661.303 46.2 659.69 46.61 658.269 47.43C656.902 48.25 655.809 49.4527 654.989 51.038C654.169 52.5687 653.759 54.4547 653.759 56.696C653.759 58.9373 654.169 60.878 654.989 62.518C655.809 64.1033 656.902 65.306 658.269 66.126C659.69 66.946 661.303 67.356 663.107 67.356ZM672.865 79V71.374L672.947 56.696L672.127 42.018V18.156H687.707V79H672.865Z" fill="#5CFFBA"/>
<path d="M505.441 189V180.718L504.375 178.668V163.416C504.375 160.956 503.61 159.07 502.079 157.758C500.603 156.391 498.225 155.708 494.945 155.708C492.813 155.708 490.654 156.063 488.467 156.774C486.28 157.43 484.422 158.359 482.891 159.562L477.643 148.984C480.158 147.344 483.164 146.087 486.663 145.212C490.216 144.283 493.742 143.818 497.241 143.818C504.457 143.818 510.033 145.485 513.969 148.82C517.96 152.1 519.955 157.266 519.955 164.318V189H505.441ZM492.321 189.738C488.768 189.738 485.761 189.137 483.301 187.934C480.841 186.731 478.955 185.091 477.643 183.014C476.386 180.937 475.757 178.613 475.757 176.044C475.757 173.311 476.44 170.96 477.807 168.992C479.228 166.969 481.388 165.439 484.285 164.4C487.182 163.307 490.927 162.76 495.519 162.76H506.015V170.878H497.651C495.136 170.878 493.36 171.288 492.321 172.108C491.337 172.928 490.845 174.021 490.845 175.388C490.845 176.755 491.364 177.848 492.403 178.668C493.442 179.488 494.863 179.898 496.667 179.898C498.362 179.898 499.892 179.488 501.259 178.668C502.68 177.793 503.719 176.481 504.375 174.732L506.507 180.472C505.687 183.533 504.074 185.857 501.669 187.442C499.318 188.973 496.202 189.738 492.321 189.738ZM587.681 143.818C591.125 143.818 594.186 144.529 596.865 145.95C599.598 147.317 601.73 149.449 603.261 152.346C604.846 155.243 605.639 158.988 605.639 163.58V189H590.059V166.122C590.059 162.951 589.458 160.655 588.255 159.234C587.052 157.758 585.412 157.02 583.335 157.02C581.859 157.02 580.52 157.375 579.317 158.086C578.114 158.797 577.185 159.89 576.529 161.366C575.873 162.787 575.545 164.646 575.545 166.942V189H559.965V166.122C559.965 162.951 559.364 160.655 558.161 159.234C557.013 157.758 555.373 157.02 553.241 157.02C551.71 157.02 550.344 157.375 549.141 158.086C547.993 158.797 547.064 159.89 546.353 161.366C545.697 162.787 545.369 164.646 545.369 166.942V189H529.789V144.556H544.631V156.938L541.679 153.412C543.319 150.241 545.56 147.863 548.403 146.278C551.246 144.638 554.416 143.818 557.915 143.818C561.906 143.818 565.404 144.857 568.411 146.934C571.472 148.957 573.522 152.127 574.561 156.446L569.477 155.38C571.062 151.772 573.44 148.957 576.611 146.934C579.836 144.857 583.526 143.818 587.681 143.818ZM642.615 189V180.718L641.549 178.668V163.416C641.549 160.956 640.783 159.07 639.253 157.758C637.777 156.391 635.399 155.708 632.119 155.708C629.987 155.708 627.827 156.063 625.641 156.774C623.454 157.43 621.595 158.359 620.065 159.562L614.817 148.984C617.331 147.344 620.338 146.087 623.837 145.212C627.39 144.283 630.916 143.818 634.415 143.818C641.631 143.818 647.207 145.485 651.143 148.82C655.133 152.1 657.129 157.266 657.129 164.318V189H642.615ZM629.495 189.738C625.941 189.738 622.935 189.137 620.475 187.934C618.015 186.731 616.129 185.091 614.817 183.014C613.559 180.937 612.931 178.613 612.931 176.044C612.931 173.311 613.614 170.96 614.981 168.992C616.402 166.969 618.561 165.439 621.459 164.4C624.356 163.307 628.101 162.76 632.693 162.76H643.189V170.878H634.825C632.31 170.878 630.533 171.288 629.495 172.108C628.511 172.928 628.019 174.021 628.019 175.388C628.019 176.755 628.538 177.848 629.577 178.668C630.615 179.488 632.037 179.898 633.841 179.898C635.535 179.898 637.066 179.488 638.433 178.668C639.854 177.793 640.893 176.481 641.549 174.732L643.681 180.472C642.861 183.533 641.248 185.857 638.843 187.442C636.492 188.973 633.376 189.738 629.495 189.738ZM664.667 189V179.816L689.595 151.116L692.219 156.118H665.241V144.556H704.847V153.658L679.837 182.44L677.213 177.356H705.667V189H664.667ZM712.527 189V144.556H728.107V189H712.527ZM720.317 139.636C717.475 139.636 715.179 138.843 713.429 137.258C711.68 135.673 710.805 133.705 710.805 131.354C710.805 129.003 711.68 127.035 713.429 125.45C715.179 123.865 717.475 123.072 720.317 123.072C723.16 123.072 725.456 123.837 727.205 125.368C728.955 126.844 729.829 128.757 729.829 131.108C729.829 133.568 728.955 135.618 727.205 137.258C725.511 138.843 723.215 139.636 720.317 139.636ZM767.178 143.818C770.622 143.818 773.738 144.529 776.526 145.95C779.314 147.317 781.501 149.449 783.086 152.346C784.726 155.243 785.546 158.988 785.546 163.58V189H769.966V166.122C769.966 162.951 769.31 160.655 767.998 159.234C766.741 157.758 764.964 157.02 762.668 157.02C761.028 157.02 759.525 157.403 758.158 158.168C756.792 158.879 755.726 159.999 754.96 161.53C754.195 163.061 753.812 165.056 753.812 167.516V189H738.232V144.556H753.074V157.184L750.204 153.494C751.899 150.269 754.222 147.863 757.174 146.278C760.126 144.638 763.461 143.818 767.178 143.818ZM817.619 205.646C813.355 205.646 809.282 205.154 805.401 204.17C801.574 203.186 798.294 201.737 795.561 199.824L801.219 188.918C803.077 190.394 805.373 191.542 808.107 192.362C810.895 193.237 813.601 193.674 816.225 193.674C820.434 193.674 823.468 192.745 825.327 190.886C827.185 189.082 828.115 186.431 828.115 182.932V177.684L828.935 165.22L828.853 152.674V144.556H843.695V180.882C843.695 189.301 841.426 195.533 836.889 199.578C832.351 203.623 825.928 205.646 817.619 205.646ZM814.913 186.704C810.977 186.704 807.341 185.829 804.007 184.08C800.727 182.276 798.075 179.789 796.053 176.618C794.085 173.393 793.101 169.593 793.101 165.22C793.101 160.847 794.085 157.075 796.053 153.904C798.075 150.679 800.727 148.191 804.007 146.442C807.341 144.693 810.977 143.818 814.913 143.818C818.685 143.818 821.91 144.583 824.589 146.114C827.267 147.59 829.29 149.913 830.657 153.084C832.078 156.255 832.789 160.3 832.789 165.22C832.789 170.14 832.078 174.185 830.657 177.356C829.29 180.527 827.267 182.877 824.589 184.408C821.91 185.939 818.685 186.704 814.913 186.704ZM818.603 174.322C820.461 174.322 822.101 173.939 823.523 173.174C824.999 172.409 826.147 171.343 826.967 169.976C827.841 168.609 828.279 167.024 828.279 165.22C828.279 163.416 827.841 161.831 826.967 160.464C826.147 159.097 824.999 158.059 823.523 157.348C822.101 156.583 820.461 156.2 818.603 156.2C816.744 156.2 815.077 156.583 813.601 157.348C812.125 158.059 810.949 159.097 810.075 160.464C809.255 161.831 808.845 163.416 808.845 165.22C808.845 167.024 809.255 168.609 810.075 169.976C810.949 171.343 812.125 172.409 813.601 173.174C815.077 173.939 816.744 174.322 818.603 174.322Z" fill="#5CFFBA"/>
<path d="M21.9175 188.608C18.4215 188.608 15.0521 188.203 11.8095 187.392C8.61745 186.531 6.08412 185.467 4.20945 184.2L8.16145 175.688C10.0361 176.853 12.2401 177.816 14.7735 178.576C17.3575 179.285 19.8908 179.64 22.3735 179.64C25.1095 179.64 27.0348 179.311 28.1495 178.652C29.3148 177.993 29.8975 177.081 29.8975 175.916C29.8975 174.953 29.4415 174.244 28.5295 173.788C27.6681 173.281 26.5028 172.901 25.0335 172.648C23.5641 172.395 21.9428 172.141 20.1695 171.888C18.4468 171.635 16.6988 171.305 14.9255 170.9C13.1521 170.444 11.5308 169.785 10.0615 168.924C8.59212 168.063 7.40145 166.897 6.48945 165.428C5.62812 163.959 5.19745 162.059 5.19745 159.728C5.19745 157.144 5.93212 154.864 7.40145 152.888C8.92145 150.912 11.1001 149.367 13.9375 148.252C16.7748 147.087 20.1695 146.504 24.1215 146.504C26.9081 146.504 29.7455 146.808 32.6335 147.416C35.5215 148.024 37.9281 148.911 39.8535 150.076L35.9015 158.512C33.9255 157.347 31.9241 156.561 29.8975 156.156C27.9215 155.7 25.9961 155.472 24.1215 155.472C21.4868 155.472 19.5615 155.827 18.3455 156.536C17.1295 157.245 16.5215 158.157 16.5215 159.272C16.5215 160.285 16.9521 161.045 17.8135 161.552C18.7255 162.059 19.9161 162.464 21.3855 162.768C22.8548 163.072 24.4508 163.351 26.1735 163.604C27.9468 163.807 29.7201 164.136 31.4935 164.592C33.2668 165.048 34.8628 165.707 36.2815 166.568C37.7508 167.379 38.9415 168.519 39.8535 169.988C40.7655 171.407 41.2215 173.281 41.2215 175.612C41.2215 178.145 40.4615 180.4 38.9415 182.376C37.4215 184.301 35.2175 185.821 32.3295 186.936C29.4921 188.051 26.0215 188.608 21.9175 188.608ZM67.9925 188.608C63.6351 188.608 59.7591 187.696 56.3645 185.872C53.0205 184.048 50.3605 181.565 48.3845 178.424C46.4591 175.232 45.4965 171.609 45.4965 167.556C45.4965 163.452 46.4591 159.829 48.3845 156.688C50.3605 153.496 53.0205 151.013 56.3645 149.24C59.7591 147.416 63.6351 146.504 67.9925 146.504C72.2991 146.504 76.1498 147.416 79.5445 149.24C82.9391 151.013 85.5991 153.471 87.5245 156.612C89.4498 159.753 90.4125 163.401 90.4125 167.556C90.4125 171.609 89.4498 175.232 87.5245 178.424C85.5991 181.565 82.9391 184.048 79.5445 185.872C76.1498 187.696 72.2991 188.608 67.9925 188.608ZM67.9925 178.88C69.9685 178.88 71.7418 178.424 73.3125 177.512C74.8831 176.6 76.1245 175.308 77.0365 173.636C77.9485 171.913 78.4045 169.887 78.4045 167.556C78.4045 165.175 77.9485 163.148 77.0365 161.476C76.1245 159.804 74.8831 158.512 73.3125 157.6C71.7418 156.688 69.9685 156.232 67.9925 156.232C66.0165 156.232 64.2431 156.688 62.6725 157.6C61.1018 158.512 59.8351 159.804 58.8725 161.476C57.9605 163.148 57.5045 165.175 57.5045 167.556C57.5045 169.887 57.9605 171.913 58.8725 173.636C59.8351 175.308 61.1018 176.6 62.6725 177.512C64.2431 178.424 66.0165 178.88 67.9925 178.88ZM150.701 146.504C153.944 146.504 156.807 147.163 159.289 148.48C161.823 149.747 163.799 151.723 165.217 154.408C166.687 157.043 167.421 160.437 167.421 164.592V188H155.565V166.416C155.565 163.123 154.881 160.691 153.513 159.12C152.145 157.549 150.22 156.764 147.737 156.764C146.015 156.764 144.469 157.169 143.101 157.98C141.733 158.74 140.669 159.905 139.909 161.476C139.149 163.047 138.769 165.048 138.769 167.48V188H126.913V166.416C126.913 163.123 126.229 160.691 124.861 159.12C123.544 157.549 121.644 156.764 119.161 156.764C117.439 156.764 115.893 157.169 114.525 157.98C113.157 158.74 112.093 159.905 111.333 161.476C110.573 163.047 110.193 165.048 110.193 167.48V188H98.3372V147.112H109.661V158.284L107.533 155.016C108.952 152.229 110.953 150.127 113.537 148.708C116.172 147.239 119.161 146.504 122.505 146.504C126.255 146.504 129.523 147.467 132.309 149.392C135.147 151.267 137.021 154.155 137.933 158.056L133.753 156.916C135.121 153.724 137.3 151.191 140.289 149.316C143.329 147.441 146.8 146.504 150.701 146.504ZM198.637 188.608C193.976 188.608 189.872 187.696 186.325 185.872C182.829 184.048 180.118 181.565 178.193 178.424C176.268 175.232 175.305 171.609 175.305 167.556C175.305 163.452 176.242 159.829 178.117 156.688C180.042 153.496 182.652 151.013 185.945 149.24C189.238 147.416 192.962 146.504 197.117 146.504C201.12 146.504 204.717 147.365 207.909 149.088C211.152 150.76 213.71 153.192 215.585 156.384C217.46 159.525 218.397 163.3 218.397 167.708C218.397 168.164 218.372 168.696 218.321 169.304C218.27 169.861 218.22 170.393 218.169 170.9H184.957V163.984H211.937L207.377 166.036C207.377 163.908 206.946 162.059 206.085 160.488C205.224 158.917 204.033 157.701 202.513 156.84C200.993 155.928 199.22 155.472 197.193 155.472C195.166 155.472 193.368 155.928 191.797 156.84C190.277 157.701 189.086 158.943 188.225 160.564C187.364 162.135 186.933 164.009 186.933 166.188V168.012C186.933 170.241 187.414 172.217 188.377 173.94C189.39 175.612 190.784 176.904 192.557 177.816C194.381 178.677 196.509 179.108 198.941 179.108C201.12 179.108 203.02 178.779 204.641 178.12C206.313 177.461 207.833 176.473 209.201 175.156L215.509 181.996C213.634 184.124 211.278 185.771 208.441 186.936C205.604 188.051 202.336 188.608 198.637 188.608ZM243.01 188.608C238.197 188.608 234.448 187.392 231.762 184.96C229.077 182.477 227.734 178.804 227.734 173.94V138.068H239.59V173.788C239.59 175.511 240.046 176.853 240.958 177.816C241.87 178.728 243.112 179.184 244.682 179.184C246.557 179.184 248.153 178.677 249.47 177.664L252.662 186.024C251.446 186.885 249.977 187.544 248.254 188C246.582 188.405 244.834 188.608 243.01 188.608ZM221.426 157.144V148.024H249.774V157.144H221.426ZM284.17 146.504C287.412 146.504 290.3 147.163 292.834 148.48C295.418 149.747 297.444 151.723 298.914 154.408C300.383 157.043 301.118 160.437 301.118 164.592V188H289.262V166.416C289.262 163.123 288.527 160.691 287.058 159.12C285.639 157.549 283.612 156.764 280.978 156.764C279.103 156.764 277.406 157.169 275.886 157.98C274.416 158.74 273.251 159.931 272.39 161.552C271.579 163.173 271.174 165.251 271.174 167.784V188H259.318V131.608H271.174V158.436L268.514 155.016C269.983 152.28 272.086 150.177 274.822 148.708C277.558 147.239 280.674 146.504 284.17 146.504ZM311.865 188V147.112H323.721V188H311.865ZM317.793 141.412C315.614 141.412 313.841 140.779 312.473 139.512C311.105 138.245 310.421 136.675 310.421 134.8C310.421 132.925 311.105 131.355 312.473 130.088C313.841 128.821 315.614 128.188 317.793 128.188C319.971 128.188 321.745 128.796 323.113 130.012C324.481 131.177 325.165 132.697 325.165 134.572C325.165 136.548 324.481 138.195 323.113 139.512C321.795 140.779 320.022 141.412 317.793 141.412ZM359.576 146.504C362.819 146.504 365.707 147.163 368.24 148.48C370.824 149.747 372.851 151.723 374.32 154.408C375.789 157.043 376.524 160.437 376.524 164.592V188H364.668V166.416C364.668 163.123 363.933 160.691 362.464 159.12C361.045 157.549 359.019 156.764 356.384 156.764C354.509 156.764 352.812 157.169 351.292 157.98C349.823 158.74 348.657 159.931 347.796 161.552C346.985 163.173 346.58 165.251 346.58 167.784V188H334.724V147.112H346.048V158.436L343.92 155.016C345.389 152.28 347.492 150.177 350.228 148.708C352.964 147.239 356.08 146.504 359.576 146.504ZM406.796 203.352C402.945 203.352 399.221 202.871 395.624 201.908C392.077 200.996 389.113 199.603 386.732 197.728L391.444 189.216C393.166 190.635 395.345 191.749 397.98 192.56C400.665 193.421 403.3 193.852 405.884 193.852C410.089 193.852 413.129 192.915 415.004 191.04C416.929 189.165 417.892 186.379 417.892 182.68V176.524L418.652 166.264L418.5 155.928V147.112H429.748V181.16C429.748 188.76 427.772 194.359 423.82 197.956C419.868 201.553 414.193 203.352 406.796 203.352ZM404.972 186.024C401.172 186.024 397.726 185.213 394.636 183.592C391.596 181.92 389.138 179.615 387.264 176.676C385.44 173.687 384.528 170.216 384.528 166.264C384.528 162.261 385.44 158.791 387.264 155.852C389.138 152.863 391.596 150.557 394.636 148.936C397.726 147.315 401.172 146.504 404.972 146.504C408.417 146.504 411.457 147.213 414.092 148.632C416.726 150 418.778 152.153 420.248 155.092C421.717 157.98 422.452 161.704 422.452 166.264C422.452 170.773 421.717 174.497 420.248 177.436C418.778 180.324 416.726 182.477 414.092 183.896C411.457 185.315 408.417 186.024 404.972 186.024ZM407.328 176.296C409.405 176.296 411.254 175.891 412.876 175.08C414.497 174.219 415.764 173.028 416.676 171.508C417.588 169.988 418.044 168.24 418.044 166.264C418.044 164.237 417.588 162.489 416.676 161.02C415.764 159.5 414.497 158.335 412.876 157.524C411.254 156.663 409.405 156.232 407.328 156.232C405.25 156.232 403.401 156.663 401.78 157.524C400.158 158.335 398.866 159.5 397.904 161.02C396.992 162.489 396.536 164.237 396.536 166.264C396.536 168.24 396.992 169.988 397.904 171.508C398.866 173.028 400.158 174.219 401.78 175.08C403.401 175.891 405.25 176.296 407.328 176.296Z" fill="white"/>
</svg>
